<?xml version="1.0" encoding="UTF-8"?>
<svg id="Layer_1" data-name="Layer 1" xmlns="http://www.w3.org/2000/svg" viewBox="0 0 72 72" width="144" height="144">
  <defs>
    <style>
      .cls-1 {
        fill: #f6c239;
      }
    </style>
  </defs>
  <path class="cls-1" d="M7.89,47.99v-31.4L24.49,0h15.47l8.3,8.3v16.37l-23.77,23.77H8.34l-.45-.45ZM24.94.9v30.72h15.02l7.62-7.62v-15.03L39.51.9h-14.58ZM31.89,8.3h4.93l5.83,5.83v4.71l-5.61,5.61h-5.16V8.3Z"/>
  <path class="cls-1" d="M24.48,48.44l23.78-23.78h15.85v8.36l-6.6,6.83.22.33h6.38v16.18l-15.63,15.63h-12.11s-.07-.03-.12-.09c-.05-.06-.09-.1-.1-.13-.01-.04-.04-.13-.07-.25s-.05-.26-.08-.41c-.02-.15-.04-.28-.05-.41-.02-.12-.02-.21-.02-.25l-1.76,1.54h-1.54l-8.15-8.15v-15.41ZM48.48,55.71h.88v-7.15h-1.54v-12l3.96-4.07h11.67v-6.93h-14.53l-7.7,7.7v15.19l7.26,7.26ZM52.22,55.71h11.23v-14.75h-6.6l-.33.66v6.6l-.33.33h-3.96v7.15Z"/>
</svg>
