<?xml version="1.0" encoding="UTF-8"?>
<svg id="Layer_1" xmlns="http://www.w3.org/2000/svg" version="1.1" viewBox="0 0 360 85.3">
  <!-- Generator: Adobe Illustrator 30.2.1, SVG Export Plug-In . SVG Version: 2.1.1 Build 1)  -->
  <defs>
    <style>
      .st0 {
        fill: #f6c239;
      }
    </style>
  </defs>
  <g>
    <path class="st0" d="M0,50.68v-21.04l11.12-11.12h10.37l5.56,5.56v10.97l-15.93,15.93H.3l-.3-.3ZM11.42,19.13v20.59h10.07l5.11-5.11v-10.07l-5.41-5.41s-9.77,0-9.77,0ZM16.08,24.08h3.31l3.91,3.91v3.16l-3.76,3.76h-3.46v-10.82h0Z"/>
    <path class="st0" d="M11.12,50.99l15.93-15.93h10.62v5.61l-4.43,4.57.15.22h4.28v10.84l-10.47,10.47h-8.11s-.05-.02-.08-.06-.06-.07-.07-.09c0-.03-.02-.09-.04-.17s-.04-.17-.05-.27c-.01-.1-.03-.19-.04-.27-.01-.08-.02-.14-.02-.17l-1.18,1.03h-1.03l-5.46-5.46v-10.33h0ZM27.2,55.85h.59v-4.79h-1.03v-8.04l2.66-2.73h7.82v-4.65h-9.74l-5.16,5.16v10.18l4.87,4.87h-.01ZM29.7,55.85h7.52v-9.88h-4.43l-.22.44v4.43l-.22.22h-2.65s0,4.79,0,4.79Z"/>
  </g>
  <g>
    <path class="st0" d="M59.14,47.05h-12.14v-12.05h12.14v2.95h-8.08v1.9h8.08v2.36h-8.08v1.92h8.08s0,2.92,0,2.92Z"/>
    <path class="st0" d="M67.69,44.07l-2.4,2.98h-4.89l4.85-6.03-4.85-6.03h4.88l2.41,2.99,2.4-2.99h4.88l-4.85,6.03,4.85,6.03h-4.89l-2.4-2.98h.01Z"/>
    <path class="st0" d="M80.29,43.44v3.61h-4.05v-12.05h8.21c3.33,0,5,1.4,5,4.19s-1.43,4.22-4.29,4.24h-4.87,0ZM80.29,37.95v2.71h3.59c1.04,0,1.56-.44,1.56-1.33v-.68c0-.45-.37-.68-1.1-.69h-4.05,0Z"/>
    <path class="st0" d="M101.56,43.14l2.73,3.91h-4.04l-2.52-3.61h-2.97v3.61h-4.05v-12.05h8.21c3.33,0,5,1.4,5,4.19,0,2.08-.79,3.4-2.36,3.95ZM94.76,37.95v2.71h3.59c1.04,0,1.56-.44,1.56-1.33v-.68c0-.45-.37-.68-1.1-.69h-4.05,0Z"/>
    <path class="st0" d="M117.69,47.05h-12.14v-12.05h12.14v2.95h-8.08v1.9h8.08v2.36h-8.08v1.92h8.08s0,2.92,0,2.92Z"/>
    <path class="st0" d="M127.28,40.03c.75,0,1.52.04,2.32.13,2.66.19,3.98,1.11,3.98,2.76,0,.05-.02.51-.05,1.4s-.72,1.66-2.05,2.32c-1.22.61-2.82.93-4.79.97-4.86-.1-7.44-1.65-7.74-4.66h4.09c.27.97,1.49,1.46,3.66,1.46,1.26,0,1.99-.34,2.2-1.01.02-.08.03-.15.03-.22,0-.54-1.23-.82-3.68-.85-.75,0-1.52-.04-2.32-.13-2.66-.19-3.98-1.11-3.98-2.76,0-.05.02-.51.05-1.4s.72-1.66,2.05-2.32c1.22-.61,2.82-.93,4.79-.97,4.86.1,7.44,1.65,7.74,4.66h-4.09c-.27-.97-1.49-1.46-3.66-1.46-1.26,0-1.99.34-2.2,1.01-.02.08-.03.15-.03.22,0,.52,1.23.8,3.68.85Z"/>
    <path class="st0" d="M143.39,40.03c.75,0,1.52.04,2.32.13,2.66.19,3.98,1.11,3.98,2.76,0,.05-.02.51-.06,1.4s-.72,1.66-2.06,2.32c-1.22.61-2.82.93-4.79.97-4.86-.1-7.44-1.65-7.74-4.66h4.09c.27.97,1.49,1.46,3.66,1.46,1.25,0,1.99-.34,2.2-1.01.02-.08.03-.15.03-.22,0-.54-1.23-.82-3.68-.85-.75,0-1.52-.04-2.32-.13-2.66-.19-3.98-1.11-3.98-2.76,0-.05.02-.51.05-1.4s.72-1.66,2.05-2.32c1.22-.61,2.82-.93,4.79-.97,4.86.1,7.44,1.65,7.74,4.66h-4.09c-.27-.97-1.49-1.46-3.65-1.46-1.26,0-1.99.34-2.2,1.01-.02.08-.03.15-.03.22,0,.52,1.23.8,3.68.85h0Z"/>
    <path class="st0" d="M164.89,38.49v8.56h-4.05v-8.56h-5.19v-3.49h14.45v3.49h-5.21,0Z"/>
    <path class="st0" d="M182.63,43.14l2.73,3.91h-4.04l-2.52-3.61h-2.97v3.61h-4.05v-12.05h8.21c3.33,0,5,1.4,5,4.19,0,2.08-.79,3.4-2.36,3.95ZM175.83,37.95v2.71h3.59c1.04,0,1.56-.44,1.56-1.33v-.68c0-.45-.37-.68-1.1-.69h-4.05,0Z"/>
    <path class="st0" d="M190.86,45.78l-.61,1.27h-4.05l5.73-12.05h4.13l5.73,12.05h-4.05l-.61-1.27h-6.28.01ZM194,39.18l-1.62,3.4h3.24l-1.61-3.4h-.01Z"/>
    <path class="st0" d="M207.1,39.06v7.99h-4.05v-12.05h5.67l5.78,7.19v-7.19h4.05v12.05h-5.03l-6.43-7.99h0Z"/>
    <path class="st0" d="M228.57,40.03c.75,0,1.52.04,2.32.13,2.66.19,3.98,1.11,3.98,2.76,0,.05-.02.51-.06,1.4-.04.89-.72,1.66-2.05,2.32-1.22.61-2.82.93-4.79.97-4.86-.1-7.44-1.65-7.74-4.66h4.09c.27.97,1.49,1.46,3.66,1.46,1.25,0,1.99-.34,2.2-1.01.02-.08.03-.15.03-.22,0-.54-1.23-.82-3.68-.85-.75,0-1.52-.04-2.32-.13-2.66-.19-3.98-1.11-3.98-2.76,0-.05.02-.51.06-1.4.04-.89.72-1.66,2.05-2.32,1.22-.61,2.82-.93,4.79-.97,4.86.1,7.44,1.65,7.74,4.66h-4.09c-.27-.97-1.49-1.46-3.66-1.46-1.25,0-1.99.34-2.2,1.01-.02.08-.03.15-.03.22,0,.52,1.23.8,3.68.85Z"/>
    <path class="st0" d="M240.61,43.44v3.61h-4.05v-12.05h8.21c3.33,0,5,1.4,5,4.19s-1.43,4.22-4.29,4.24h-4.87ZM240.61,37.95v2.71h3.59c1.04,0,1.56-.44,1.56-1.33v-.68c0-.45-.37-.68-1.1-.69h-4.05,0Z"/>
    <path class="st0" d="M258.79,47.05c-5.18-.11-7.77-2.15-7.77-6.14s2.59-5.99,7.77-6.14c5.18.16,7.77,2.2,7.77,6.14s-2.59,6.04-7.77,6.14ZM258.78,43.86c2.48,0,3.71-.97,3.71-2.92v-.03c0-1.94-1.24-2.92-3.71-2.92s-3.71.97-3.71,2.91v.05c0,1.94,1.24,2.92,3.71,2.92h0Z"/>
    <path class="st0" d="M278.67,43.14l2.73,3.91h-4.04l-2.52-3.61h-2.97v3.61h-4.05v-12.05h8.21c3.33,0,5,1.4,5,4.19,0,2.08-.79,3.4-2.36,3.95h0ZM271.87,37.95v2.71h3.59c1.04,0,1.56-.44,1.56-1.33v-.68c0-.45-.37-.68-1.1-.69h-4.05Z"/>
    <path class="st0" d="M291.27,38.49v8.56h-4.05v-8.56h-5.19v-3.49h14.45v3.49h-5.21Z"/>
    <path class="st0" d="M306.08,40.03c.75,0,1.52.04,2.32.13,2.66.19,3.98,1.11,3.98,2.76,0,.05-.02.51-.06,1.4-.04.89-.72,1.66-2.05,2.32-1.22.61-2.82.93-4.79.97-4.86-.1-7.44-1.65-7.74-4.66h4.09c.27.97,1.49,1.46,3.66,1.46,1.25,0,1.99-.34,2.2-1.01.02-.08.03-.15.03-.22,0-.54-1.23-.82-3.68-.85-.75,0-1.52-.04-2.32-.13-2.66-.19-3.98-1.11-3.98-2.76,0-.05.02-.51.06-1.4.04-.89.72-1.66,2.05-2.32,1.22-.61,2.82-.93,4.79-.97,4.86.1,7.44,1.65,7.74,4.66h-4.09c-.27-.97-1.49-1.46-3.66-1.46-1.25,0-1.99.34-2.2,1.01-.02.08-.03.15-.03.22,0,.52,1.23.8,3.68.85Z"/>
    <path class="st0" d="M322.38,43.85h8.08v3.2h-12.14v-12.05h4.05v8.85h.01Z"/>
    <path class="st0" d="M335.78,43.85h8.08v3.2h-12.14v-12.05h4.05v8.85h.01Z"/>
    <path class="st0" d="M360,41.61c-.3,3.48-2.88,5.29-7.74,5.44-5.18-.16-7.77-2.2-7.77-6.14s2.59-6.04,7.77-6.14c4.86.1,7.44,1.91,7.74,5.44h-4.09c-.27-1.5-1.49-2.24-3.66-2.24-2.47,0-3.71.97-3.71,2.92v.05c0,1.94,1.24,2.91,3.71,2.91,2.16,0,3.38-.74,3.66-2.22h4.09v-.02Z"/>
  </g>
</svg>